<?xml version="1.0" standalone="no"?>
<!DOCTYPE svg PUBLIC "-//W3C//DTD SVG 1.1//EN" "http://www.w3.org/Graphics/SVG/1.1/DTD/svg11.dtd" >
<svg xmlns="http://www.w3.org/2000/svg">
<metadata>Generated by IcoMoon</metadata>
<defs>
<font id="tenconcierge" horiz-adv-x="1024">
<font-face units-per-em="1024" ascent="960" descent="-64" />
<missing-glyph horiz-adv-x="1024" />
<glyph unicode="&#x20;" horiz-adv-x="512" d="" />
<glyph unicode="&#xe900;" glyph-name="Icon_ArrowDown" d="M512 276.103c-0.009 0-0.019 0-0.029 0-2.776 0-5.29 1.122-7.112 2.938v0l-324.312 323.584c-1.989 1.851-3.23 4.483-3.23 7.406 0 5.581 4.524 10.105 10.105 10.105 2.909 0 5.531-1.229 7.375-3.196l0.005-0.006 317.197-316.443 317.171 316.47c1.798 1.673 4.217 2.7 6.875 2.7 5.581 0 10.105-4.524 10.105-10.105 0-2.672-1.037-5.102-2.731-6.909l0.005 0.006-324.285-323.611c-1.822-1.815-4.336-2.937-7.112-2.937-0.010 0-0.021 0-0.031 0h0.002z" />
<glyph unicode="&#xe901;" glyph-name="Icon_ArrowLeft" d="M673.684 113.61c-0.012 0-0.026 0-0.040 0-2.786 0-5.307 1.133-7.127 2.964v0l-323.476 324.285c-1.818 1.827-2.942 4.346-2.942 7.128s1.124 5.301 2.942 7.128v0l323.584 324.339c1.801 1.688 4.231 2.726 6.903 2.726 5.581 0 10.105-4.524 10.105-10.105 0-2.659-1.027-5.077-2.705-6.882l0.006 0.006-316.443-317.197 316.47-317.171c1.826-1.828 2.955-4.353 2.955-7.141 0-5.581-4.524-10.105-10.105-10.105-0.006 0-0.013 0-0.019 0h0.001z" />
<glyph unicode="&#xe902;" glyph-name="Icon_ArrowRight" d="M350.316 113.61c-0.005 0-0.012 0-0.018 0-5.581 0-10.105 4.524-10.105 10.105 0 2.788 1.129 5.313 2.955 7.141v0l316.362 317.144-316.47 317.171c-1.973 1.849-3.202 4.471-3.202 7.38 0 5.581 4.524 10.105 10.105 10.105 2.922 0 5.555-1.241 7.4-3.224l0.006-0.006 323.611-324.285c1.818-1.827 2.942-4.346 2.942-7.128s-1.124-5.301-2.942-7.128v0l-323.584-324.339c-1.809-1.806-4.303-2.926-7.058-2.937h-0.002z" />
<glyph unicode="&#xe903;" glyph-name="Icon_ArrowUp" d="M836.285 276.103c-0.009 0-0.019 0-0.029 0-2.776 0-5.29 1.122-7.112 2.938v0l-317.144 316.47-317.171-316.47c-1.849-1.973-4.471-3.202-7.38-3.202-5.581 0-10.105 4.524-10.105 10.105 0 2.922 1.241 5.555 3.224 7.4l0.006 0.006 324.285 323.611c1.827 1.818 4.346 2.942 7.128 2.942s5.301-1.124 7.128-2.942v0l324.339-323.584c1.842-1.831 2.982-4.366 2.982-7.168 0-5.581-4.524-10.105-10.105-10.105-0.006 0-0.013 0-0.019 0h0.001z" />
<glyph unicode="&#xe904;" glyph-name="Icon_Benefits" d="M703.677 549.753c-41.351 0.010-74.869 33.534-74.869 74.887 0 41.359 33.528 74.887 74.887 74.887s74.887-33.528 74.887-74.887c0-21.83-9.34-41.478-24.243-55.166l-0.054-0.049c-13.247-12.195-31.003-19.672-50.506-19.672-0.036 0-0.071 0-0.107 0h0.006zM703.677 679.397c-30.198-0.037-54.665-24.527-54.665-54.73 0-30.227 24.504-54.73 54.73-54.73 14.279 0 27.282 5.469 37.027 14.426l-0.039-0.036c10.902 10.037 17.708 24.378 17.708 40.308 0 29.413-23.202 53.407-52.302 54.677l-0.115 0.004zM747.547 576.997v0zM703.65 614.535c-5.571 0.013-10.082 4.532-10.082 10.105 0 2.939 1.255 5.585 3.257 7.431l0.007 0.006 178.095 163.301c1.793 1.648 4.194 2.658 6.831 2.658 5.583 0 10.108-4.526 10.108-10.108 0-2.946-1.26-5.597-3.27-7.444l-0.007-0.007-178.095-163.301c-1.782-1.637-4.169-2.641-6.791-2.641-0.019 0-0.038 0-0.057 0h0.003zM601.223 797.912c1.209-0.003 2.398-0.071 3.569-0.202l-0.147 0.013 96.391-10.159c7.559-0.764 14.189-4.235 19.008-9.413l0.017-0.018 137.944-150.447c4.724-5.21 7.644-12.132 7.734-19.734v-0.018l1.779-97.011c0.001-0.080 0.001-0.175 0.001-0.269 0-10.317-4.46-19.593-11.558-26.004l-0.031-0.027-412.618-378.179-278.474 303.832 412.591 378.179c6.22 5.811 14.583 9.398 23.783 9.458h0.012zM601.223 818.122c-14.482-0.080-27.641-5.68-37.493-14.801l0.037 0.033-427.493-391.949 305.799-333.528 427.493 391.949c11.161 10.159 18.139 24.746 18.139 40.963 0 0.207-0.001 0.415-0.003 0.621v-0.032l-1.779 97.011c-0.179 12.76-5.101 24.336-13.078 33.077l0.035-0.039-137.944 150.366c-8.069 8.726-19.151 14.563-31.583 15.854l-0.215 0.018-96.391 10.159c-1.655 0.187-3.576 0.294-5.521 0.296h-0.003z" />
<glyph unicode="&#xe905;" glyph-name="Icon_Car" d="M94.316 291.301c-0.003 0-0.006 0-0.009 0-1.51 0-2.943 0.328-4.232 0.915l0.064-0.026-23.39 10.59c-34.262 15.768-57.638 49.769-57.721 89.239v83.305c0.014 2.664 0.18 5.275 0.49 7.841l-0.032-0.323c4.502 33.613 24.055 61.889 51.541 78.199l0.494 0.271 82.809 49.987c57.598 36.303 127.664 57.843 202.761 57.843 32.894 0 64.823-4.133 95.296-11.908l-2.66 0.575c65.85-17.162 122.467-50.259 167.527-94.984l-0.022 0.022c31.162-31.058 74.113-50.305 121.559-50.445h75.156c116.475-0.138 210.86-94.522 210.998-210.984v-0.013c0-5.581-4.524-10.105-10.105-10.105s-10.105 4.524-10.105 10.105v0c-0.123 105.319-85.468 190.665-190.775 190.787h-75.114c-53.103 0.131-101.152 21.655-136.008 56.406l0.005-0.005c-42.589 42.248-96.13 73.518-155.987 89.172l-2.41 0.535c-26.222 6.754-56.325 10.63-87.333 10.63-71.232 0-137.685-20.457-193.806-55.817l1.506 0.886-82.836-49.987c-22.697-13.359-38.59-36.195-42.283-62.927l-0.051-0.453c-0.191-1.601-0.308-3.472-0.323-5.368v-83.316c0.052-31.341 18.609-58.335 45.327-70.645l0.484-0.2 23.39-10.59c3.543-1.622 5.96-5.137 5.96-9.216 0-5.581-4.524-10.105-10.105-10.105-0.011 0-0.022 0-0.034 0h0.002zM223.879 226.331c-48.502 0-87.821 39.319-87.821 87.821s39.319 87.821 87.821 87.821c48.502 0 87.821-39.319 87.821-87.821v0c-0.061-48.478-39.344-87.76-87.816-87.821h-0.006zM223.879 381.763c-37.34 0-67.611-30.27-67.611-67.611s30.27-67.611 67.611-67.611c37.34 0 67.611 30.27 67.611 67.611v0c-0.046 37.322-30.289 67.565-67.607 67.611h-0.004zM845.824 226.331c-48.502 0-87.821 39.319-87.821 87.821s39.319 87.821 87.821 87.821c48.502 0 87.821-39.319 87.821-87.821v0c-0.061-48.478-39.344-87.76-87.816-87.821h-0.006zM845.824 381.763c-37.306-0.046-67.53-30.299-67.53-67.611 0-37.34 30.27-67.611 67.611-67.611s67.611 30.27 67.611 67.611v0c-0.046 37.35-30.335 67.611-67.692 67.611v0zM768 304.047h-406.447c-5.581 0-10.105 4.524-10.105 10.105s4.524 10.105 10.105 10.105v0h406.447c5.581 0 10.105-4.524 10.105-10.105s-4.524-10.105-10.105-10.105v0z" />
<glyph unicode="&#xe906;" glyph-name="Icon_Close" d="M298.469 224.337c-0.005 0-0.012 0-0.018 0-5.581 0-10.105 4.524-10.105 10.105 0 2.788 1.129 5.313 2.955 7.141v0l427.062 427.089c1.83 1.833 4.36 2.967 7.155 2.967 5.583 0 10.109-4.526 10.109-10.109 0-2.788-1.129-5.312-2.954-7.141v0l-427.035-427.062c-1.83-1.845-4.365-2.989-7.168-2.991v0zM725.531 224.337c-0.005 0-0.012 0-0.018 0-2.793 0-5.321 1.133-7.15 2.964v0l-427.035 427.089c-1.825 1.829-2.954 4.353-2.954 7.141 0 5.583 4.526 10.109 10.109 10.109 2.795 0 5.325-1.134 7.154-2.967v0l427.035-427.062c1.826-1.828 2.955-4.353 2.955-7.141 0-5.581-4.524-10.105-10.105-10.105-0.006 0-0.013 0-0.019 0h0.001z" />
<glyph unicode="&#xe907;" glyph-name="Icon_Dining" d="M397.662 67.8c-0.013 0-0.028 0-0.043 0-22.443 0-41.524 14.395-48.514 34.456l-0.109 0.36c-1.662 4.701-2.622 10.121-2.622 15.767 0 8.405 2.128 16.312 5.875 23.213l-0.127-0.257 166.777 314.072c6.47 13.688 10.248 29.735 10.248 46.665 0 7.486-0.739 14.799-2.147 21.871l0.118-0.71c-2.372 11.757-3.73 25.273-3.73 39.105 0 31.783 7.168 61.892 19.977 88.799l-0.536-1.251 80.465 172.463c1.649 3.476 5.13 5.838 9.162 5.838 5.583 0 10.109-4.526 10.109-10.109 0-1.55-0.349-3.019-0.973-4.332l0.026 0.061-80.465-172.463c-11.072-23.151-17.539-50.32-17.539-79 0-12.481 1.225-24.675 3.56-36.47l-0.196 1.186c1.501-7.462 2.36-16.040 2.36-24.819 0-20.241-4.567-39.416-12.726-56.55l0.341 0.797-167.074-314.53c-2.116-3.908-3.36-8.556-3.36-13.494 0-3.341 0.569-6.549 1.616-9.532l-0.062 0.202c4.354-12.297 15.883-20.948 29.433-20.948 4.030 0 7.88 0.765 11.415 2.158l-0.211-0.073c7.472 2.954 13.29 8.728 16.234 15.976l0.069 0.192 133.443 329.782c11.94 25.492 31.059 45.956 54.746 59.242l0.657 0.339c34.705 19.394 61.996 48.48 78.661 83.59l0.484 1.133 80.627 172.894c1.649 3.476 5.13 5.838 9.162 5.838 5.583 0 10.109-4.526 10.109-10.109 0-1.55-0.349-3.019-0.973-4.332l0.026 0.061-80.546-173.164c-18.991-40.133-49.207-72.345-86.588-93.293l-1.045-0.538c-20.481-11.438-36.585-28.601-46.415-49.319l-0.285-0.668-133.228-329.324c-5.143-12.564-15.001-22.309-27.318-27.182l-0.33-0.115c-5.467-2.2-11.806-3.476-18.443-3.476-0.034 0-0.068 0-0.102 0h0.005zM587.965 581.955c-5.574 0.010-10.088 4.53-10.088 10.105 0 1.556 0.352 3.029 0.98 4.346l-0.026-0.061 94.855 203.453c1.649 3.476 5.13 5.838 9.162 5.838 5.583 0 10.109-4.526 10.109-10.109 0-1.55-0.349-3.019-0.973-4.332l0.026 0.061-94.882-203.453c-1.645-3.481-5.127-5.847-9.162-5.848v0zM638.006 558.646c-0.003 0-0.007 0-0.010 0-5.581 0-10.105 4.524-10.105 10.105 0 1.556 0.352 3.029 0.98 4.346l-0.026-0.061 94.882 203.453c1.649 3.476 5.13 5.838 9.162 5.838 5.583 0 10.109-4.526 10.109-10.109 0-1.55-0.349-3.019-0.973-4.332l0.026 0.061-94.882-203.453c-1.645-3.481-5.127-5.847-9.162-5.848v0zM603.082 68.689c-21.121 0.065-39.208 12.99-46.845 31.353l-0.124 0.337-48.505 119.619c-0.466 1.125-0.737 2.43-0.737 3.8 0 5.616 4.552 10.168 10.168 10.168 4.247 0 7.885-2.603 9.407-6.301l0.025-0.068 48.505-119.619c4.673-11.183 15.523-18.899 28.174-18.899 16.817 0 30.451 13.633 30.451 30.451 0 5.176-1.292 10.051-3.57 14.32l0.080-0.164-88.738 167.613c-0.74 1.37-1.175 2.999-1.175 4.729 0 5.582 4.525 10.108 10.108 10.108 3.852 0 7.201-2.155 8.907-5.325l0.026-0.054 88.738-167.613c3.696-6.864 5.868-15.022 5.868-23.687 0-27.984-22.653-50.677-50.621-50.742h-0.006zM454.279 367.912c-4.215 0.002-7.827 2.577-9.353 6.239l-0.025 0.067-25.816 63.596c-10.42 21.865-26.747 39.492-46.926 51.225l-0.556 0.298c-50.967 24.446-91.322 64.209-115.872 113.258l-0.648 1.43c-40.421 86.878-28.834 181.679 25.492 207.010s134.494-26.651 174.996-113.529c13.43-29.459 21.257-63.892 21.257-100.154 0-22.845-3.107-44.964-8.921-65.957l0.409 1.733c-1.056-5.853-1.66-12.59-1.66-19.468 0-17.768 4.031-34.595 11.229-49.616l-0.298 0.691 14.579-27.459c0.744-1.374 1.181-3.007 1.181-4.743 0-5.586-4.528-10.114-10.114-10.114-3.85 0-7.198 2.151-8.907 5.318l-0.026 0.054-14.794 27.944c-8.186 16.955-12.97 36.87-12.97 57.902 0 8.586 0.797 16.985 2.321 25.129l-0.131-0.841c4.872 17.711 7.672 38.047 7.672 59.037 0 33.281-7.038 64.918-19.708 93.504l0.583-1.474c-34.627 74.321-105.229 123.958-148.211 103.774-43.628-20.345-50.984-104.529-15.71-180.17 23.238-46.258 60.319-82.687 105.747-104.502l1.369-0.592c25-14.217 44.667-35.314 56.746-60.718l0.355-0.83 26.031-64.054c0.466-1.122 0.736-2.425 0.736-3.792 0-4.22-2.579-7.837-6.247-9.361l-0.067-0.025c-1.103-0.481-2.386-0.775-3.733-0.808h-0.013z" />
<glyph unicode="&#xe908;" glyph-name="Icon_Ents" d="M170.685 486.265c-0.017 0-0.037 0-0.058 0-5.581 0-10.105 4.524-10.105 10.105 0 4.643 3.131 8.555 7.397 9.738l0.071 0.017 272.168 72.758c0.78 0.216 1.676 0.34 2.6 0.34 5.583 0 10.109-4.526 10.109-10.109 0-4.658-3.151-8.58-7.437-9.752l-0.071-0.017-272.168-72.758c-0.752-0.205-1.615-0.323-2.506-0.323v0zM291.624 109.972c-16.97 0.002-31.263 11.462-35.564 27.066l-0.061 0.259-152.333 571.096 84.345 22.555 2.856-9.324c8.174-26.218 32.229-44.919 60.652-44.919 35.019 0 63.407 28.388 63.407 63.407 0 5.035-0.587 9.933-1.696 14.629l0.086-0.43-2.183 9.512 84.318 22.501 74.24-278.285c0.216-0.78 0.34-1.676 0.34-2.6 0-5.583-4.526-10.109-10.109-10.109-4.658 0-8.58 3.151-9.752 7.437l-0.017 0.071-69.039 258.695-46.511-12.396c0.35-2.871 0.549-6.195 0.549-9.565 0-46.136-37.401-83.537-83.537-83.537-34.173 0-63.553 20.519-76.492 49.909l-0.21 0.535-46.511-12.396 147.16-551.559c1.958-7.161 8.407-12.337 16.064-12.337 1.523 0 2.997 0.205 4.398 0.588l-0.117-0.027 99.705 26.624c0.78 0.216 1.676 0.34 2.6 0.34 5.583 0 10.109-4.526 10.109-10.109 0-4.658-3.151-8.58-7.437-9.752l-0.071-0.017-99.705-26.624c-2.845-0.787-6.112-1.239-9.485-1.24v0zM644.985 75.56c-4.947 0.017-9.659 1.005-13.961 2.784l0.245-0.090-236.813 95.151c-13.653 5.614-23.091 18.811-23.091 34.213 0 4.935 0.969 9.644 2.727 13.946l-0.089-0.246 241.933 602.139 86.959-35.032-3.315-9.162c-2.713-7.191-4.283-15.504-4.283-24.184 0-38.888 31.525-70.413 70.413-70.413 28.655 0 53.313 17.117 64.305 41.685l0.179 0.447 3.961 8.92 86.959-35.032-242.041-602.004c-5.606-13.648-18.781-23.089-34.165-23.121h-0.004zM627.146 797.184l-234.442-583.411c-0.745-1.82-1.177-3.931-1.177-6.144 0-6.936 4.247-12.88 10.282-15.373l0.11-0.040 236.813-95.151c1.824-0.75 3.941-1.185 6.159-1.185 6.934 0 12.875 4.252 15.359 10.29l0.040 0.111 234.442 583.411-50.58 20.318c-15.977-27.182-45.075-45.139-78.367-45.139-50.035 0-90.597 40.562-90.597 90.597 0 7.556 0.925 14.897 2.668 21.914l-0.131-0.623zM821.383 469.558c-1.359 0.002-2.656 0.269-3.841 0.752l0.068-0.025-286.397 115.146c-3.778 1.536-6.394 5.178-6.394 9.432 0 5.607 4.546 10.153 10.153 10.153 1.354 0 2.646-0.265 3.827-0.746l-0.068 0.024 286.397-115.092c3.748-1.534 6.34-5.153 6.34-9.378 0-5.581-4.524-10.105-10.105-10.105-0.003 0-0.005 0-0.008 0v0z" />
<glyph unicode="&#xe909;" glyph-name="Icon_Events" d="M707.853 662.205c-5.581 0-10.105 4.524-10.105 10.105v0 139.48c0 5.581 4.524 10.105 10.105 10.105s10.105-4.524 10.105-10.105v0-139.372c0-0.032 0.001-0.070 0.001-0.108 0-5.581-4.524-10.105-10.105-10.105 0 0 0 0-0.001 0v0zM316.147 668.645c-5.581 0-10.105 4.524-10.105 10.105v0 139.372c0 5.581 4.524 10.105 10.105 10.105s10.105-4.524 10.105-10.105v0-139.372c0-5.581-4.524-10.105-10.105-10.105v0zM822.757 559.805h-621.514c-5.581 0-10.105 4.524-10.105 10.105s4.524 10.105 10.105 10.105v0h621.514c5.581 0 10.105-4.524 10.105-10.105s-4.524-10.105-10.105-10.105v0zM765.305 67.773h-506.611c-37.321 0.046-67.557 30.311-67.557 67.638 0 0 0 0 0 0v0 570.233c-0.018 0.502-0.029 1.091-0.029 1.683 0 26.336 20.803 47.813 46.873 48.894l0.098 0.003h547.84c26.168-1.084 46.972-22.561 46.972-48.897 0-0.601-0.011-1.2-0.032-1.797l0.002 0.086v-570.206c0-37.327-30.237-67.592-67.553-67.638h-0.004zM238.080 736.013c-15.011-1.077-26.781-13.519-26.781-28.71 0-0.593 0.018-1.182 0.053-1.767l-0.004 0.080v-570.206c0-0.008 0-0.017 0-0.027 0-26.16 21.191-47.37 47.344-47.4h506.613c26.155 0.031 47.347 21.241 47.347 47.4 0 0.009 0 0.019 0 0.028v-0.001 570.233c0.031 0.504 0.049 1.093 0.049 1.686 0 15.191-11.77 27.634-26.689 28.705l-0.093 0.005zM484.325 478.477h-86.232c-5.581 0-10.105 4.524-10.105 10.105s4.524 10.105 10.105 10.105v0h86.232c5.581 0 10.105-4.524 10.105-10.105s-4.524-10.105-10.105-10.105v0zM620.355 478.477h-86.232c-5.581 0-10.105 4.524-10.105 10.105s4.524 10.105 10.105 10.105v0h86.232c5.581 0 10.105-4.524 10.105-10.105s-4.524-10.105-10.105-10.105v0zM767.407 478.477h-86.232c-5.581 0-10.105 4.524-10.105 10.105s4.524 10.105 10.105 10.105v0h86.232c5.581 0 10.105-4.524 10.105-10.105s-4.524-10.105-10.105-10.105v0zM342.771 376.374h-86.232c-5.581 0-10.105 4.524-10.105 10.105s4.524 10.105 10.105 10.105v0h86.232c5.581 0 10.105-4.524 10.105-10.105s-4.524-10.105-10.105-10.105v0zM484.325 376.374h-86.232c-5.581 0-10.105 4.524-10.105 10.105s4.524 10.105 10.105 10.105v0h86.232c5.581 0 10.105-4.524 10.105-10.105s-4.524-10.105-10.105-10.105v0zM620.355 376.374h-86.232c-5.581 0-10.105 4.524-10.105 10.105s4.524 10.105 10.105 10.105v0h86.232c5.581 0 10.105-4.524 10.105-10.105s-4.524-10.105-10.105-10.105v0zM767.407 376.374h-86.232c-5.581 0-10.105 4.524-10.105 10.105s4.524 10.105 10.105 10.105v0h86.232c5.581 0 10.105-4.524 10.105-10.105s-4.524-10.105-10.105-10.105v0zM342.771 274.27h-86.232c-5.581 0-10.105 4.524-10.105 10.105s4.524 10.105 10.105 10.105v0h86.232c5.581 0 10.105-4.524 10.105-10.105s-4.524-10.105-10.105-10.105v0zM484.325 274.27h-86.232c-5.581 0-10.105 4.524-10.105 10.105s4.524 10.105 10.105 10.105v0h86.232c5.581 0 10.105-4.524 10.105-10.105s-4.524-10.105-10.105-10.105v0zM620.355 274.27h-86.232c-5.581 0-10.105 4.524-10.105 10.105s4.524 10.105 10.105 10.105v0h86.232c5.581 0 10.105-4.524 10.105-10.105s-4.524-10.105-10.105-10.105v0zM767.407 274.27h-86.232c-5.581 0-10.105 4.524-10.105 10.105s4.524 10.105 10.105 10.105v0h86.232c5.581 0 10.105-4.524 10.105-10.105s-4.524-10.105-10.105-10.105v0zM342.771 172.14h-86.232c-5.581 0-10.105 4.524-10.105 10.105s4.524 10.105 10.105 10.105v0h86.232c5.581 0 10.105-4.524 10.105-10.105s-4.524-10.105-10.105-10.105v0zM484.325 172.14h-86.232c-5.581 0-10.105 4.524-10.105 10.105s4.524 10.105 10.105 10.105v0h86.232c5.581 0 10.105-4.524 10.105-10.105s-4.524-10.105-10.105-10.105v0zM620.355 172.14h-86.232c-5.581 0-10.105 4.524-10.105 10.105s4.524 10.105 10.105 10.105v0h86.232c5.581 0 10.105-4.524 10.105-10.105s-4.524-10.105-10.105-10.105v0z" />
<glyph unicode="&#xe90a;" glyph-name="Icon_Flights" d="M410.974 485.026c-0.002 0-0.004 0-0.007 0-1.92 0-3.714 0.541-5.237 1.48l0.043-0.025-144.384 86.851c-9.218 5.522-15.293 15.458-15.293 26.813 0 6.256 1.844 12.082 5.019 16.963l-0.074-0.121 7.249 11.291c5.589 8.681 15.204 14.348 26.142 14.348 2.934 0 5.772-0.408 8.461-1.169l-0.218 0.053 283.136-75.453c4.357-1.188 7.508-5.11 7.508-9.768 0-5.583-4.526-10.109-10.109-10.109-0.925 0-1.82 0.124-2.671 0.357l0.071-0.017-283.163 75.453c-0.868 0.246-1.865 0.388-2.895 0.388-3.853 0-7.242-1.982-9.206-4.981l-0.026-0.042-7.249-11.291c-1.087-1.671-1.734-3.715-1.734-5.911 0-4.010 2.158-7.516 5.375-9.421l0.051-0.028 144.465-86.932c3.050-1.778 5.067-5.033 5.067-8.76 0-5.581-4.524-10.105-10.105-10.105-0.067 0-0.133 0.001-0.199 0.002h0.010zM485.053 177.88c-0.009 0-0.019 0-0.030 0-20.904 0-38.060 16.050-39.815 36.5l-0.010 0.149-16.734 200.812c-0.008 0.147-0.012 0.32-0.012 0.494 0 5.581 4.524 10.105 10.105 10.105 5.166 0 9.427-3.877 10.032-8.88l0.005-0.048 16.734-200.812c0.568-6.257 3.946-11.624 8.846-14.883l0.073-0.046c3.045-2.015 6.784-3.216 10.802-3.216 7.764 0 14.482 4.48 17.71 10.996l0.052 0.115 173.568 260.231c7.916 11.809 18.822 21.053 31.65 26.76l0.472 0.187 270.12 117.194c15.187 6.825 25.953 21.064 27.738 37.98l0.017 0.204c0.225 1.604 0.354 3.456 0.354 5.339 0 13.497-6.616 25.45-16.781 32.791l-0.119 0.082c-6.989 5.088-15.745 8.141-25.213 8.141-5.708 0-11.157-1.109-16.144-3.124l0.289 0.103-807.99-322.021c-1.113-0.459-2.406-0.726-3.761-0.726-1.477 0-2.88 0.317-4.145 0.886l0.064-0.026-106.685 47.266-7.545-20.264 58.099-70.413c29.642-33.442 78.956-39.882 131.665-17.031l176.559 63.731c0.945 0.323 2.034 0.509 3.167 0.509 5.581 0 10.105-4.524 10.105-10.105 0-4.247-2.62-7.883-6.333-9.378l-0.068-0.024-175.966-63.515c-59.661-25.896-119.080-17.273-154.489 22.69l-61.979 75.129c-1.434 1.732-2.304 3.976-2.304 6.423 0 1.264 0.232 2.474 0.656 3.59l-0.023-0.069 13.312 35.813c1.482 3.857 5.156 6.545 9.457 6.545 1.452 0 2.833-0.306 4.081-0.858l-0.065 0.025 112.667-49.88 804.163 320.377c6.903 2.826 14.914 4.466 23.308 4.466 13.879 0 26.711-4.484 37.125-12.082l-0.179 0.125c15.412-11.186 25.32-29.142 25.32-49.412 0-2.596-0.163-5.155-0.478-7.665l0.031 0.299c-2.646-24.485-18.068-44.832-39.376-54.424l-0.425-0.171-270.12-117.221c-9.671-4.251-17.606-10.947-23.242-19.318l-0.121-0.192-173.164-259.018c-5.054-9.685-13.79-16.863-24.303-19.743l-0.273-0.064c-3.132-0.897-6.731-1.418-10.45-1.428h-0.006z" />
<glyph unicode="&#xe90b;" glyph-name="Icon_Heart" d="M512 96.903l-55.485 50.526c-197.093 178.688-327.168 296.556-327.168 441.209-0.006 0.604-0.010 1.317-0.010 2.031 0 115.117 93.321 208.438 208.438 208.438 0.714 0 1.427-0.004 2.14-0.011l-0.109 0.001c68.798-0.532 130.301-31.312 171.941-79.68l0.252-0.3c41.893 48.668 103.396 79.448 172.101 79.979l0.093 0.001c0.604 0.006 1.317 0.010 2.031 0.010 115.117 0 208.438-93.321 208.438-208.438 0-0.714-0.004-1.427-0.011-2.14l0.001 0.109c0-144.653-130.102-262.521-327.195-441.613z" />
<glyph unicode="&#xe90c;" glyph-name="Icon_HeartOutline" d="M512 83.24l-62.275 56.589c-199.114 180.736-330.509 299.789-330.509 448.808-0.007 0.652-0.011 1.423-0.011 2.195 0 120.549 97.724 218.274 218.274 218.274 0.809 0 1.617-0.004 2.424-0.013l-0.123 0.001c67.811-0.492 128.849-29.086 172.121-74.7l0.1-0.106c43.372 45.72 104.409 74.314 172.13 74.805l0.091 0.001c0.693 0.008 1.511 0.012 2.33 0.012 120.549 0 218.274-97.724 218.274-218.274 0-0.819-0.005-1.637-0.014-2.454l0.001 0.125c0-148.749-130.883-267.695-329.027-447.757zM339.806 788.992c-0.644 0.008-1.405 0.012-2.168 0.012-109.477 0-198.225-88.748-198.225-198.225 0-0.762 0.004-1.523 0.013-2.283l-0.001 0.116c0-140.126 128.647-256.728 323.368-433.341l49.206-44.733 48.721 43.978c195.584 177.853 323.853 294.292 323.853 434.095 0.008 0.644 0.012 1.405 0.012 2.168 0 109.477-88.748 198.225-198.225 198.225-0.762 0-1.523-0.004-2.283-0.013l0.116 0.001c-65.727-0.526-124.482-29.933-164.273-76.137l-0.241-0.286-7.68-9.027-7.68 9.027c-40.037 46.497-98.803 75.905-164.451 76.422l-0.090 0.001z" />
<glyph unicode="&#xe90d;" glyph-name="Icon_Hotel" d="M57.425 156.968c-5.581 0-10.105 4.524-10.105 10.105v0 561.987c0 5.581 4.524 10.105 10.105 10.105s10.105-4.524 10.105-10.105v0-562.122c-0.076-5.523-4.571-9.971-10.104-9.971 0 0-0.001 0-0.001 0v0zM966.575 156.968c-5.581 0-10.105 4.524-10.105 10.105v0 493.811c0 5.581 4.524 10.105 10.105 10.105s10.105-4.524 10.105-10.105v0-493.945c-0.076-5.523-4.571-9.971-10.104-9.971 0 0-0.001 0-0.001 0v0zM966.575 402.971h-909.15c-5.581 0-10.105 4.524-10.105 10.105s4.524 10.105 10.105 10.105v0h909.15c5.581 0 10.105-4.524 10.105-10.105s-4.524-10.105-10.105-10.105v0zM966.575 289.873h-909.15c-5.581 0-10.105 4.524-10.105 10.105s4.524 10.105 10.105 10.105v0h909.15c5.581 0 10.105-4.524 10.105-10.105s-4.524-10.105-10.105-10.105v0zM190.464 402.971c-5.581 0-10.105 4.524-10.105 10.105v0c0 63.057-8.569 111.293-116.278 111.293h-6.656c-5.581 0-10.105 4.524-10.105 10.105s4.524 10.105 10.105 10.105v0h6.656c125.925 0 136.488-67.88 136.488-131.503 0-5.581-4.524-10.105-10.105-10.105v0zM250.476 412.968c-5.581 0-10.105 4.524-10.105 10.105v0c0 91.163 97.011 165.322 216.307 165.322h509.898c5.581 0 10.105-4.524 10.105-10.105s-4.524-10.105-10.105-10.105v0h-509.898c-108.14 0-196.096-65.105-196.096-145.112 0-5.581-4.524-10.105-10.105-10.105v0z" />
<glyph unicode="&#xe90e;" glyph-name="Icon_LongArrowDown" d="M512-45.514c-0.005 0-0.012 0-0.018 0-2.779 0-5.297 1.122-7.123 2.938h0.001l-324.312 323.503c-1.989 1.851-3.23 4.483-3.23 7.406 0 5.581 4.524 10.105 10.105 10.105 2.909 0 5.531-1.229 7.375-3.196l0.005-0.006 317.197-316.362 317.171 316.47c1.798 1.673 4.217 2.7 6.875 2.7 5.581 0 10.105-4.524 10.105-10.105 0-2.672-1.037-5.102-2.731-6.909l0.005 0.006-324.285-323.476c-1.813-1.869-4.337-3.039-7.135-3.072h-0.006zM512-47.158c-5.581 0-10.105 4.524-10.105 10.105v0 970.105c0 5.581 4.524 10.105 10.105 10.105s10.105-4.524 10.105-10.105v0-970.105c0-5.581-4.524-10.105-10.105-10.105v0z" />
<glyph unicode="&#xe90f;" glyph-name="Icon_LongArrowLeft" d="M352.175 113.61c-0.012 0-0.026 0-0.040 0-2.786 0-5.307 1.133-7.127 2.964v0l-323.449 324.285c-1.818 1.827-2.942 4.346-2.942 7.128s1.124 5.301 2.942 7.128v0l323.368 324.339c1.851 1.989 4.483 3.23 7.406 3.23 5.581 0 10.105-4.524 10.105-10.105 0-2.909-1.229-5.531-3.196-7.375l-0.006-0.005-316.362-317.197 316.47-317.171c1.826-1.828 2.955-4.353 2.955-7.141 0-5.581-4.524-10.105-10.105-10.105-0.006 0-0.013 0-0.019 0h0.001zM997.053 437.895h-970.105c-5.581 0-10.105 4.524-10.105 10.105s4.524 10.105 10.105 10.105v0h970.105c5.581 0 10.105-4.524 10.105-10.105s-4.524-10.105-10.105-10.105v0z" />
<glyph unicode="&#xe910;" glyph-name="Icon_LongArrowRight" d="M671.825 113.61c-0.005 0-0.012 0-0.018 0-5.581 0-10.105 4.524-10.105 10.105 0 2.788 1.129 5.313 2.955 7.141l316.47 317.143-316.47 317.171c-1.816 1.833-2.938 4.356-2.938 7.141 0 5.604 4.543 10.147 10.147 10.147 2.819 0 5.369-1.149 7.208-3.005l0.001-0.001 323.368-324.312c1.818-1.827 2.942-4.346 2.942-7.128s-1.124-5.301-2.942-7.128v0l-323.368-324.339c-1.822-1.816-4.336-2.938-7.113-2.938-0.048 0-0.096 0-0.143 0.001h0.007zM997.053 437.895h-970.105c-5.581 0-10.105 4.524-10.105 10.105s4.524 10.105 10.105 10.105v0h970.105c5.581 0 10.105-4.524 10.105-10.105s-4.524-10.105-10.105-10.105v0z" />
<glyph unicode="&#xe911;" glyph-name="Icon_LongArrowUp" d="M836.285 597.72c-0.005 0-0.012 0-0.018 0-2.779 0-5.297 1.122-7.123 2.938h0.001l-317.144 316.47-317.171-316.47c-1.833-1.816-4.356-2.938-7.141-2.938-5.604 0-10.147 4.543-10.147 10.147 0 2.819 1.149 5.369 3.005 7.208l0.001 0.001 324.312 323.368c1.827 1.818 4.346 2.942 7.128 2.942s5.301-1.124 7.128-2.942v0l324.339-323.368c1.842-1.831 2.982-4.366 2.982-7.168 0-5.581-4.524-10.105-10.105-10.105-0.006 0-0.013 0-0.019 0h0.001zM512-47.158c-5.581 0-10.105 4.524-10.105 10.105v0 970.105c0 5.581 4.524 10.105 10.105 10.105s10.105-4.524 10.105-10.105v0-970.105c0-5.581-4.524-10.105-10.105-10.105v0z" />
<glyph unicode="&#xe912;" glyph-name="Icon_Menu" d="M808.421 617.553h-592.842c-5.581 0-10.105 4.524-10.105 10.105s4.524 10.105 10.105 10.105v0h592.842c5.581 0 10.105-4.524 10.105-10.105s-4.524-10.105-10.105-10.105v0zM808.421 437.895h-592.842c-5.581 0-10.105 4.524-10.105 10.105s4.524 10.105 10.105 10.105v0h592.842c5.581 0 10.105-4.524 10.105-10.105s-4.524-10.105-10.105-10.105v0zM808.421 258.237h-592.842c-5.581 0-10.105 4.524-10.105 10.105s4.524 10.105 10.105 10.105v0h592.842c5.581 0 10.105-4.524 10.105-10.105s-4.524-10.105-10.105-10.105v0z" />
<glyph unicode="&#xe913;" glyph-name="Icon_Minus" d="M813.972 437.895h-603.944c-5.581 0-10.105 4.524-10.105 10.105s4.524 10.105 10.105 10.105v0h603.944c5.581 0 10.105-4.524 10.105-10.105s-4.524-10.105-10.105-10.105v0z" />
<glyph unicode="&#xe914;" glyph-name="Icon_OneWay" d="M743.424 404.13c-0.005 0-0.012 0-0.018 0-5.581 0-10.105 4.524-10.105 10.105 0 2.788 1.129 5.313 2.955 7.141v0l108.813 108.813-108.813 108.84c-1.825 1.829-2.954 4.353-2.954 7.141 0 5.583 4.526 10.109 10.109 10.109 2.795 0 5.325-1.134 7.154-2.967v0l115.874-115.874c1.813-1.834 2.933-4.357 2.933-7.141s-1.12-5.307-2.934-7.142l-115.873-115.873c-1.802-1.899-4.326-3.097-7.131-3.153h-0.010zM164.621 239.778c-0.016 0-0.035 0-0.054 0-5.551 0-10.051 4.5-10.051 10.051 0 0 0 0 0 0v0c0.123 160.333 130.034 290.282 290.34 290.466h414.522c5.581 0 10.105-4.524 10.105-10.105s-4.524-10.105-10.105-10.105v0h-414.504c-149.131-0.169-269.979-121.017-270.147-270.132v-0.016c0 0 0 0 0 0 0-5.592-4.518-10.128-10.102-10.159h-0.003z" />
<glyph unicode="&#xe915;" glyph-name="Icon_Plus" d="M512 135.923c-5.581 0-10.105 4.524-10.105 10.105v0 603.944c0 5.581 4.524 10.105 10.105 10.105s10.105-4.524 10.105-10.105v0-603.944c0-5.581-4.524-10.105-10.105-10.105v0zM813.972 437.895h-603.944c-5.581 0-10.105 4.524-10.105 10.105s4.524 10.105 10.105 10.105v0h603.944c5.581 0 10.105-4.524 10.105-10.105s-4.524-10.105-10.105-10.105v0z" />
<glyph unicode="&#xe916;" glyph-name="Icon_Redo" d="M485.053 233.553h-212.076c-5.581 0-10.105 4.524-10.105 10.105s4.524 10.105 10.105 10.105v0h212.076c143.178 0.169 259.2 116.191 259.368 259.353v26.236c-0.138 120.821-98.045 218.729-218.853 218.867h-252.591c-5.581 0-10.105 4.524-10.105 10.105s4.524 10.105 10.105 10.105v0h252.712c131.977-0.153 238.924-107.1 239.077-239.063v-26.234c-0.184-154.38-125.323-279.472-279.703-279.579h-0.010zM385.347 117.571c-0.005 0-0.012 0-0.018 0-2.793 0-5.321 1.133-7.15 2.964v0l-115.874 115.874c-1.82 1.831-2.944 4.355-2.944 7.141s1.125 5.31 2.945 7.142l115.873 115.873c1.83 1.833 4.36 2.967 7.155 2.967 5.583 0 10.109-4.526 10.109-10.109 0-2.788-1.129-5.312-2.954-7.141v0l-108.84-108.813 108.84-108.84c1.826-1.828 2.955-4.353 2.955-7.141 0-5.581-4.524-10.105-10.105-10.105-0.006 0-0.013 0-0.019 0h0.001z" />
<glyph unicode="&#xe917;" glyph-name="Icon_Return" d="M669.588 462.093c-0.005 0-0.012 0-0.018 0-5.581 0-10.105 4.524-10.105 10.105 0 2.788 1.129 5.313 2.955 7.141v0l108.813 108.787-108.813 108.894c-1.825 1.829-2.954 4.353-2.954 7.141 0 5.583 4.526 10.109 10.109 10.109 2.795 0 5.325-1.134 7.154-2.967v0l115.874-115.874c1.813-1.834 2.933-4.357 2.933-7.141s-1.12-5.307-2.934-7.142l-115.873-115.873c-1.798-1.909-4.323-3.116-7.13-3.18h-0.011zM354.412 181.733c-0.005 0-0.012 0-0.018 0-2.793 0-5.321 1.133-7.15 2.964v0l-115.874 115.874c-1.813 1.834-2.933 4.357-2.933 7.141s1.12 5.307 2.934 7.142l115.873 115.873c1.83 1.833 4.36 2.967 7.155 2.967 5.583 0 10.109-4.526 10.109-10.109 0-2.788-1.129-5.312-2.954-7.141v0l-108.787-108.571 108.813-108.84c1.826-1.828 2.955-4.353 2.955-7.141 0-5.581-4.524-10.105-10.105-10.105-0.006 0-0.013 0-0.019 0h0.001zM798.504 297.715h-560.020c-5.581 0-10.105 4.524-10.105 10.105s4.524 10.105 10.105 10.105v0h560.020c68.82 0.077 124.586 55.861 124.632 124.681v10.783c0 0.024 0 0.053 0 0.081 0 47.246-26.307 88.348-65.071 109.458l-0.653 0.326c-3.195 1.741-5.326 5.075-5.326 8.906 0 5.583 4.526 10.109 10.109 10.109 1.752 0 3.4-0.446 4.836-1.23l-0.053 0.026c45.803-24.917 76.369-72.682 76.369-127.586 0-0.032 0-0.063 0-0.095v0.005-10.779c-0.061-79.98-64.866-144.804-144.833-144.896h-0.009zM153.6 318.491c-0.014 0-0.030 0-0.046 0-1.984 0-3.832 0.583-5.383 1.587l0.039-0.024c-40.844 25.927-67.558 70.915-67.558 122.143 0 0.145 0 0.291 0.001 0.436v-0.023 10.779c0.092 79.957 64.885 144.75 144.833 144.842h560.029c5.581 0 10.105-4.524 10.105-10.105s-4.524-10.105-10.105-10.105v0h-560.020c-68.801-0.077-124.555-55.83-124.632-124.624v-10.786c0-0.095 0-0.208 0-0.321 0-44.094 22.982-82.819 57.622-104.852l0.504-0.3c2.847-1.82 4.707-4.964 4.707-8.542 0-5.578-4.519-10.1-10.096-10.105h-0.001z" />
<glyph unicode="&#xe918;" glyph-name="Icon_Search" d="M386.075 769.644c123.020 0 222.747-99.727 222.747-222.747s-99.727-222.747-222.747-222.747c-123.020 0-222.747 99.727-222.747 222.747v0c0.153 122.958 99.789 222.594 222.732 222.747h0.015zM386.075 789.854c-134.182 0-242.957-108.776-242.957-242.957s108.776-242.957 242.957-242.957c134.182 0 242.957 108.776 242.957 242.957v0c0 134.182-108.776 242.957-242.957 242.957v0zM834.722 88.145c-0.001 0-0.002 0-0.003 0-2.829 0-5.386 1.166-7.216 3.043l-0.002 0.002-276.83 282.947c-1.924 1.843-3.119 4.433-3.119 7.302 0 5.581 4.524 10.105 10.105 10.105 2.949 0 5.604-1.264 7.451-3.279l0.007-0.008 276.83-282.947c1.778-1.82 2.875-4.312 2.875-7.060 0-5.578-4.52-10.101-10.097-10.105v0z" />
<glyph unicode="&#xe919;" glyph-name="Icon_See" d="M511.138 222.316c-0.070 0-0.152 0-0.235 0-15.284 0-30.376 0.822-45.235 2.425l1.842-0.161c-188.632 11.399-351.367 94.747-422.373 218.867l-2.856 5.012 2.856 5.012c76.531 133.767 259.8 220.214 466.863 220.214s390.333-86.447 466.863-220.295l2.856-5.012-2.856-5.012c-71.491-124.982-236.167-208.627-426.361-219.082-13.555-1.267-27.352-1.967-41.364-1.967zM468.884 244.736c12.858-0.796 27.887-1.25 43.022-1.25 13.768 0 27.448 0.376 41.031 1.117l-1.89-0.082c139.021 13.959 246.326 99.705 246.326 203.021 0 113.044-128.458 204.989-286.316 204.989s-286.235-91.944-286.235-204.989c0-102.804 106.2-188.173 244.062-202.806zM689.314 630.649c77.608-40.906 128.269-107.789 128.269-183.242 0-73.108-47.643-138.159-121.263-179.335 116.763 32.822 211.86 96.525 262.036 180.251-51.119 85.531-148.992 150.097-268.962 182.326zM65.617 448.458c49.664-82.89 143.333-146.163 258.533-179.254-72.758 41.203-119.539 105.822-119.539 178.338 0 74.779 49.88 141.15 126.437 182.137-118.326-32.525-214.797-96.66-265.432-181.221zM511.138 315.958c-76.348 0-138.24 61.892-138.24 138.24s61.892 138.24 138.24 138.24c76.348 0 138.24-61.892 138.24-138.24v0c-0.077-76.317-61.923-138.163-138.233-138.24h-0.007zM511.138 572.227c-65.186 0-118.029-52.844-118.029-118.029s52.844-118.029 118.029-118.029c65.186 0 118.029 52.844 118.029 118.029v0c-0.123 65.12-52.903 117.872-118.022 117.949h-0.007z" />
<glyph unicode="&#xe91a;" glyph-name="Icon_SeeDisabled" d="M511.138 222.316c-0.070 0-0.152 0-0.235 0-15.284 0-30.376 0.822-45.235 2.425l1.842-0.161c-188.632 11.399-351.367 94.747-422.373 218.867l-2.856 5.012 2.856 5.012c76.531 133.767 259.8 220.214 466.863 220.214s390.333-86.447 466.863-220.295l2.856-5.012-2.856-5.012c-71.491-124.982-236.167-208.627-426.361-219.082-13.555-1.267-27.352-1.967-41.364-1.967zM468.884 244.736c12.858-0.796 27.887-1.25 43.022-1.25 13.768 0 27.448 0.376 41.031 1.117l-1.89-0.082c139.021 13.959 246.326 99.705 246.326 203.021 0 113.044-128.458 204.989-286.316 204.989s-286.235-91.944-286.235-204.989c0-102.804 106.2-188.173 244.062-202.806zM689.314 630.649c77.608-40.906 128.269-107.789 128.269-183.242 0-73.108-47.643-138.159-121.263-179.335 116.763 32.822 211.86 96.525 262.036 180.251-51.119 85.531-148.992 150.097-268.962 182.326zM65.617 448.458c49.664-82.89 143.333-146.163 258.533-179.254-72.758 41.203-119.539 105.822-119.539 178.338 0 74.779 49.88 141.15 126.437 182.137-118.326-32.525-214.797-96.66-265.432-181.221zM511.138 315.958c-76.348 0-138.24 61.892-138.24 138.24s61.892 138.24 138.24 138.24c76.348 0 138.24-61.892 138.24-138.24v0c-0.077-76.317-61.923-138.163-138.233-138.24h-0.007zM511.138 572.227c-65.186 0-118.029-52.844-118.029-118.029s52.844-118.029 118.029-118.029c65.186 0 118.029 52.844 118.029 118.029v0c-0.123 65.12-52.903 117.872-118.022 117.949h-0.007zM53.895 222.316c-5.577 0.005-10.097 4.527-10.097 10.105 0 4.011 2.337 7.477 5.724 9.109l0.060 0.026 916.211 431.158c1.263 0.609 2.746 0.965 4.312 0.965 5.586 0 10.114-4.528 10.114-10.114 0-4.020-2.345-7.491-5.741-9.122l-0.061-0.026-916.211-431.158c-1.248-0.595-2.712-0.943-4.257-0.943-0.019 0-0.038 0-0.057 0h0.003z" />
<glyph unicode="&#xe91b;" glyph-name="Icon_Star" d="M512 254.41l207.36-125.144-55.027 235.87 183.242 158.693-241.233 20.48-94.343 222.424-94.316-222.451-241.233-20.48 183.242-158.693-55.027-235.87z" />
<glyph unicode="&#xe91c;" glyph-name="Icon_StarOutlined" d="M734.639 108.221l-222.639 134.387-222.639-134.387 59.069 253.305-196.716 170.388 259.018 21.962 101.268 238.781 101.214-238.808 259.018-21.962-196.716-170.388zM512 266.213l192.054-115.874-50.984 218.435 169.768 147.025-223.448 18.863-87.39 206.201-87.363-206.12-223.448-18.863 169.768-147.025-50.984-218.489z" />
<glyph unicode="&#xe91d;" glyph-name="Icon_Tick" d="M380.578 220.214c-0.005 0-0.012 0-0.018 0-2.793 0-5.321 1.133-7.15 2.964v0l-172.463 172.463c-1.825 1.829-2.954 4.353-2.954 7.141 0 5.583 4.526 10.109 10.109 10.109 2.795 0 5.325-1.134 7.154-2.967v0l165.349-165.349 428.194 428.194c1.83 1.833 4.36 2.967 7.155 2.967 5.583 0 10.109-4.526 10.109-10.109 0-2.788-1.129-5.312-2.954-7.141v0l-435.362-435.308c-1.829-1.831-4.357-2.964-7.15-2.964-0.006 0-0.013 0-0.019 0h0.001z" />
<glyph unicode="&#xe91e;" glyph-name="Icon_Travel" d="M686.646 647.68c0.065 0.002 0.142 0.003 0.219 0.003 4.901 0 8.89-3.906 9.024-8.775v-493.149c-0.134-4.881-4.123-8.787-9.024-8.787-0.077 0-0.154 0.001-0.23 0.003h-349.281c-0.065-0.002-0.142-0.003-0.219-0.003-4.901 0-8.89 3.906-9.024 8.775v493.149c0.134 4.881 4.123 8.787 9.024 8.787 0.077 0 0.154-0.001 0.23-0.003h349.281zM686.646 667.891h-349.292c-0.064 0.001-0.14 0.001-0.217 0.001-16.063 0-29.1-12.953-29.237-28.983v-493.15c0.137-16.043 13.174-28.996 29.237-28.996 0.076 0 0.152 0 0.228 0.001h349.28c0.064-0.001 0.14-0.001 0.217-0.001 16.063 0 29.1 12.953 29.237 28.983v493.15c-0.137 16.043-13.174 28.996-29.237 28.996-0.076 0-0.152 0-0.228-0.001h0.012zM383.084 53.841c-5.581 0-10.105 4.524-10.105 10.105v0 60.147c0 5.581 4.524 10.105 10.105 10.105s10.105-4.524 10.105-10.105v0-60.147c0-5.581-4.524-10.105-10.105-10.105v0zM658.351 53.841c-5.581 0-10.105 4.524-10.105 10.105v0 60.147c0 5.581 4.524 10.105 10.105 10.105s10.105-4.524 10.105-10.105v0-60.147c0-5.581-4.524-10.105-10.105-10.105v0zM530.109 811.789c2.317 0 9.27-7.491 9.27-21.154v-117.679h-62.41v117.76c0 13.662 6.979 21.154 9.27 21.154h43.789zM530.028 832.081h-43.709c-16.168 0-29.48-18.513-29.48-41.364v-137.917h102.75v137.917c0 22.851-13.204 41.364-29.48 41.364zM397.662 199.68c-5.581 0-10.105 4.524-10.105 10.105v0 358.993c0 5.581 4.524 10.105 10.105 10.105s10.105-4.524 10.105-10.105v0-358.993c0-5.581-4.524-10.105-10.105-10.105v0zM512 199.68c-5.581 0-10.105 4.524-10.105 10.105v0 358.993c0 5.581 4.524 10.105 10.105 10.105s10.105-4.524 10.105-10.105v0-358.993c0-5.581-4.524-10.105-10.105-10.105v0zM626.338 199.68c-5.581 0-10.105 4.524-10.105 10.105v0 358.993c0 5.581 4.524 10.105 10.105 10.105s10.105-4.524 10.105-10.105v0-358.993c0-5.581-4.524-10.105-10.105-10.105v0z" />
<glyph unicode="&#xe91f;" glyph-name="Icon_User" d="M484.595 432.424c-0.020 0-0.044 0-0.068 0-101.485 0-183.754 82.27-183.754 183.754s82.27 183.754 183.754 183.754c101.485 0 183.754-82.27 183.754-183.754 0-50.705-20.537-96.614-53.748-129.861l0.002 0.002c-33.076-33.29-78.884-53.895-129.505-53.895-0.153 0-0.306 0-0.459 0.001h0.024zM484.595 779.722c-90.309-0.017-163.513-73.232-163.513-163.544 0-90.323 73.221-163.544 163.544-163.544s163.544 73.221 163.544 163.544c0 45.169-18.311 86.061-47.916 115.658v0c-29.433 29.596-70.181 47.913-115.208 47.913-0.158 0-0.317 0-0.475-0.001h0.025zM825.075 96.040c-5.581 0-10.105 4.524-10.105 10.105v0c-1.678 178.919-147.109 323.314-326.265 323.314s-324.587-144.395-326.264-323.155l-0.001-0.159c0-5.581-4.524-10.105-10.105-10.105s-10.105 4.524-10.105 10.105v0c1.73 190.042 156.189 343.434 346.476 343.434s344.746-153.391 346.475-343.27l0.001-0.164c0-5.581-4.524-10.105-10.105-10.105v0z" />
</font>
</defs>
</svg>
